<svg width="50" height="51" viewBox="0 0 50 51" fill="none" xmlns="http://www.w3.org/2000/svg">
<path d="M16.717 5.14337C14.5889 5.24628 13.1357 5.59437 11.8653 6.10606C10.5505 6.63127 9.43608 7.33606 8.32727 8.47668C7.21845 9.61731 6.53565 10.7604 6.02684 12.1101C5.53444 13.4152 5.20083 14.9059 5.10683 17.0884C5.01283 19.2708 4.99203 19.9723 5.00243 25.5393C5.01283 31.1063 5.03683 31.8041 5.14003 33.9911C5.24163 36.1719 5.58004 37.661 6.07924 38.9636C6.59245 40.3112 7.27926 41.4531 8.39247 42.59C9.50568 43.727 10.6201 44.4252 11.9401 44.9475C13.2121 45.4514 14.6669 45.795 16.7958 45.8905C18.9246 45.9861 19.6098 46.0082 25.0394 45.9976C30.4691 45.9869 31.1527 45.9623 33.2859 45.8586C35.4191 45.7548 36.8644 45.4055 38.1356 44.8963C39.4504 44.369 40.5652 43.6663 41.6736 42.5248C42.782 41.3834 43.4644 40.2395 43.9728 38.889C44.4656 37.5851 44.8004 36.094 44.8928 33.9136C44.986 31.7254 45.008 31.0268 44.9976 25.4606C44.9872 19.8944 44.9628 19.1966 44.8616 17.0105C44.7604 14.8243 44.4216 13.3397 43.9228 12.0363C43.4088 10.6886 42.7228 9.54761 41.61 8.40985C40.4972 7.2721 39.3804 6.57305 38.0632 6.05317C36.7904 5.54845 35.3363 5.20446 33.2075 5.11016C31.0787 5.01586 30.3935 4.99167 24.9618 5.00233C19.5302 5.01299 18.8502 5.03677 16.717 5.14337ZM16.9506 42.2026C15.0005 42.1157 13.9417 41.7836 13.2361 41.5056C12.3017 41.1366 11.6361 40.6905 10.9329 39.9767C10.2297 39.2629 9.79768 38.5782 9.43288 37.6225C9.15887 36.8992 8.82887 35.8152 8.73767 33.8164C8.63847 31.6561 8.61767 31.0075 8.60607 25.5344C8.59447 20.0613 8.61487 19.4135 8.70727 17.2524C8.79047 15.2552 9.11647 14.1687 9.38728 13.4459C9.74728 12.4869 10.1809 11.8059 10.8789 11.0855C11.5769 10.3652 12.2429 9.92153 13.1761 9.54761C13.8809 9.26553 14.9385 8.93015 16.8878 8.83503C18.997 8.73253 19.629 8.71202 24.9678 8.70013C30.3067 8.68824 30.9403 8.70875 33.0503 8.80387C34.9987 8.89079 36.0591 9.22166 36.7636 9.50087C37.6984 9.86987 38.3636 10.3131 39.0664 11.0298C39.7692 11.7464 40.2024 12.4266 40.5672 13.3852C40.8428 14.1056 41.17 15.1892 41.262 17.1884C41.3624 19.3503 41.3852 19.9985 41.3948 25.4704C41.4044 30.9423 41.3856 31.5922 41.2932 33.7525C41.208 35.7512 40.8848 36.8369 40.6132 37.561C40.2532 38.5183 39.8192 39.201 39.1208 39.9209C38.4224 40.6409 37.7572 41.0845 36.8236 41.4584C36.1195 41.7401 35.0607 42.0763 33.1131 42.1714C31.0039 42.2731 30.3719 42.2944 25.031 42.3063C19.6902 42.3182 19.0602 42.2961 16.951 42.2026M33.2551 14.5435C33.2559 15.0301 33.3975 15.5055 33.6619 15.9096C33.9263 16.3137 34.3017 16.6283 34.7406 16.8138C35.1795 16.9992 35.6622 17.047 36.1276 16.9512C36.593 16.8555 37.0203 16.6204 37.3553 16.2757C37.6904 15.931 37.9182 15.4922 38.0099 15.0148C38.1017 14.5374 38.0532 14.0428 37.8707 13.5936C37.6882 13.1444 37.3798 12.7608 36.9846 12.4913C36.5894 12.2217 36.1251 12.0784 35.6503 12.0794C35.014 12.0807 34.4041 12.341 33.955 12.8031C33.5058 13.2652 33.2541 13.8912 33.2551 14.5435ZM14.7309 25.5204C14.7421 31.3343 19.3486 36.0366 25.0194 36.0255C30.6903 36.0144 35.2811 31.2933 35.2703 25.4794C35.2595 19.6656 30.6519 14.9621 24.9802 14.9736C19.3086 14.985 14.7201 19.7074 14.7309 25.5204ZM18.3334 25.5131C18.3308 24.1615 18.7192 22.8396 19.4496 21.7143C20.18 20.5891 21.2195 19.7111 22.4367 19.1914C23.6539 18.6717 24.9942 18.5337 26.2879 18.7947C27.5817 19.0558 28.7708 19.7042 29.7051 20.658C30.6393 21.6118 31.2766 22.8281 31.5364 24.1531C31.7962 25.4782 31.6668 26.8524 31.1646 28.1021C30.6625 29.3518 29.81 30.4208 28.7151 31.1739C27.6202 31.927 26.332 32.3303 25.0134 32.333C24.1379 32.3349 23.2706 32.16 22.461 31.8183C21.6514 31.4765 20.9155 30.9747 20.2951 30.3414C19.6748 29.708 19.1823 28.9557 18.8457 28.1272C18.5091 27.2988 18.335 26.4105 18.3334 25.5131Z" fill="white"/>
</svg>
