<?xml version="1.0" encoding="utf-8"?>
<!-- Generator: Adobe Illustrator 28.0.0, SVG Export Plug-In . SVG Version: 6.00 Build 0)  -->
<svg version="1.1" id="Слой_1" xmlns="http://www.w3.org/2000/svg" xmlns:xlink="http://www.w3.org/1999/xlink" x="0px" y="0px"
	 viewBox="0 0 50 51" style="enable-background:new 0 0 50 51;" xml:space="preserve">
<style type="text/css">
	.st0{fill:#0059B5;}
</style>
<path class="st0" d="M16.7,5.1c-2.1,0.1-3.6,0.5-4.9,1c-1.3,0.5-2.4,1.2-3.5,2.4C7.2,9.6,6.5,10.8,6,12.1c-0.5,1.3-0.8,2.8-0.9,5
	C5,19.3,5,20,5,25.5s0,6.3,0.1,8.5c0.1,2.2,0.4,3.7,0.9,5c0.5,1.3,1.2,2.5,2.3,3.6c1.1,1.1,2.2,1.8,3.5,2.4c1.3,0.5,2.7,0.8,4.9,0.9
	C18.9,46,19.6,46,25,46c5.4,0,6.1,0,8.2-0.1c2.1-0.1,3.6-0.5,4.8-1c1.3-0.5,2.4-1.2,3.5-2.4c1.1-1.1,1.8-2.3,2.3-3.6
	c0.5-1.3,0.8-2.8,0.9-5C45,31.7,45,31,45,25.5s0-6.3-0.1-8.5c-0.1-2.2-0.4-3.7-0.9-5c-0.5-1.3-1.2-2.5-2.3-3.6
	c-1.1-1.1-2.2-1.8-3.5-2.4c-1.3-0.5-2.7-0.8-4.9-0.9C31.1,5,30.4,5,25,5C19.5,5,18.9,5,16.7,5.1z M17,42.2c-2-0.1-3-0.4-3.7-0.7
	c-0.9-0.4-1.6-0.8-2.3-1.5c-0.7-0.7-1.1-1.4-1.5-2.4c-0.3-0.7-0.6-1.8-0.7-3.8c-0.1-2.2-0.1-2.8-0.1-8.3c0-5.5,0-6.1,0.1-8.3
	c0.1-2,0.4-3.1,0.7-3.8c0.4-1,0.8-1.6,1.5-2.4c0.7-0.7,1.4-1.2,2.3-1.5c0.7-0.3,1.8-0.6,3.7-0.7C19,8.7,19.6,8.7,25,8.7
	c5.3,0,6,0,8.1,0.1c1.9,0.1,3,0.4,3.7,0.7c0.9,0.4,1.6,0.8,2.3,1.5c0.7,0.7,1.1,1.4,1.5,2.4c0.3,0.7,0.6,1.8,0.7,3.8
	c0.1,2.2,0.1,2.8,0.1,8.3c0,5.5,0,6.1-0.1,8.3c-0.1,2-0.4,3.1-0.7,3.8c-0.4,1-0.8,1.6-1.5,2.4c-0.7,0.7-1.4,1.2-2.3,1.5
	c-0.7,0.3-1.8,0.6-3.7,0.7c-2.1,0.1-2.7,0.1-8.1,0.1C19.7,42.3,19.1,42.3,17,42.2 M33.3,14.5c0,0.5,0.1,1,0.4,1.4
	c0.3,0.4,0.6,0.7,1.1,0.9c0.4,0.2,0.9,0.2,1.4,0.1c0.5-0.1,0.9-0.3,1.2-0.7c0.3-0.3,0.6-0.8,0.7-1.3c0.1-0.5,0-1-0.1-1.4
	c-0.2-0.4-0.5-0.8-0.9-1.1c-0.4-0.3-0.9-0.4-1.3-0.4c-0.6,0-1.2,0.3-1.7,0.7C33.5,13.3,33.3,13.9,33.3,14.5z M14.7,25.5
	C14.7,31.3,19.3,36,25,36c5.7,0,10.3-4.7,10.3-10.5C35.3,19.7,30.7,15,25,15C19.3,15,14.7,19.7,14.7,25.5z M18.3,25.5
	c0-1.4,0.4-2.7,1.1-3.8c0.7-1.1,1.8-2,3-2.5c1.2-0.5,2.6-0.7,3.9-0.4c1.3,0.3,2.5,0.9,3.4,1.9c0.9,1,1.6,2.2,1.8,3.5
	c0.3,1.3,0.1,2.7-0.4,3.9c-0.5,1.2-1.4,2.3-2.4,3.1c-1.1,0.8-2.4,1.2-3.7,1.2c-0.9,0-1.7-0.2-2.6-0.5c-0.8-0.3-1.5-0.8-2.2-1.5
	c-0.6-0.6-1.1-1.4-1.4-2.2C18.5,27.3,18.3,26.4,18.3,25.5z"/>
</svg>
