<svg width="50" height="51" viewBox="0 0 50 51" fill="none" xmlns="http://www.w3.org/2000/svg">
<path d="M41 4.5H9C6.24 4.5 4 6.74 4 9.5V41.5C4 44.26 6.24 46.5 9 46.5H41C43.76 46.5 46 44.26 46 41.5V9.5C46 6.74 43.76 4.5 41 4.5ZM17 20.5V39.5H11V20.5H17ZM11 14.97C11 13.57 12.2 12.5 14 12.5C15.8 12.5 16.93 13.57 17 14.97C17 16.37 15.88 17.5 14 17.5C12.2 17.5 11 16.37 11 14.97ZM39 39.5H33C33 39.5 33 30.24 33 29.5C33 27.5 32 25.5 29.5 25.46H29.42C27 25.46 26 27.52 26 29.5C26 30.41 26 39.5 26 39.5H20V20.5H26V23.06C26 23.06 27.93 20.5 31.81 20.5C35.78 20.5 39 23.23 39 28.76V39.5Z" fill="white"/>
</svg>
