<?xml version="1.0" encoding="utf-8"?>
<!-- Generator: Adobe Illustrator 28.0.0, SVG Export Plug-In . SVG Version: 6.00 Build 0)  -->
<svg version="1.1" id="Слой_1" xmlns="http://www.w3.org/2000/svg" xmlns:xlink="http://www.w3.org/1999/xlink" x="0px" y="0px"
	 viewBox="0 0 50 51" style="enable-background:new 0 0 50 51;" xml:space="preserve">
<style type="text/css">
	.st0{fill:#0059B5;}
</style>
<path class="st0" d="M41,4.5H9c-2.8,0-5,2.2-5,5v32c0,2.8,2.2,5,5,5h32c2.8,0,5-2.2,5-5v-32C46,6.7,43.8,4.5,41,4.5z M17,20.5v19h-6
	v-19H17z M11,15c0-1.4,1.2-2.5,3-2.5s2.9,1.1,3,2.5c0,1.4-1.1,2.5-3,2.5C12.2,17.5,11,16.4,11,15z M39,39.5h-6c0,0,0-9.3,0-10
	c0-2-1-4-3.5-4h-0.1c-2.4,0-3.4,2.1-3.4,4c0,0.9,0,10,0,10h-6v-19h6v2.6c0,0,1.9-2.6,5.8-2.6c4,0,7.2,2.7,7.2,8.3V39.5z"/>
</svg>
