<?xml version="1.0" encoding="utf-8"?>
<!-- Generator: Adobe Illustrator 28.0.0, SVG Export Plug-In . SVG Version: 6.00 Build 0)  -->
<svg version="1.1" id="Слой_1" xmlns="http://www.w3.org/2000/svg" xmlns:xlink="http://www.w3.org/1999/xlink" x="0px" y="0px"
	 viewBox="0 0 490 480" style="enable-background:new 0 0 490 480;" xml:space="preserve">
<style type="text/css">
	.st0{fill:#004388;stroke:#FFFFFF;stroke-miterlimit:10;}
</style>
<g id="elem_x5F_group">
	<path id="map_x5F_grandest" class="st0" d="M359.6,56.7l-4.5,4.2l-0.8,1.7l0.5,4l-3.4,0.5l-5.6,2.9l-5.1-1.8l-2.9,0.6l-0.5,2.6
		l1.4,0.5l-0.1,2.1l-1.8,5.1l1.6,1.4l-2.4,3.3l-2.2,1.2l-0.5,2.6l-2.8-0.3l-0.6,0.9L332,91l-1.1,1.5l1.1,1.2l-1.4,1l1,3.4l-1.2,0.5
		l-0.1,4.4l-2.9-1l-1.4-1.7l-2.5,1.5l-0.2,2l-2.7-0.6l-4.9,2.4l1.3,4.4l-0.9,1.3l1.1,0.9l0.6-0.5l0.6,1.7l1.3-0.3v1.3l-1.6,0.9
		l-3.1-0.5l-0.8,1.8l1.4,2.4l-1.9,1l-0.1,1.4l2.4-0.4l1,1.6l-3.3,3.1l0.5,1l-1.1,0.2l-0.1,1.4l-1.6,0.2l-1.6,3.3l0.1,2.2l-3.2,0.3
		l1.5,1.1l-1.8,1.8l2.8,1.2l-0.6,5.7l3.1-0.6l-0.5,0.7l1.4,0.9l-2.2,0.6l0.5,0.8l-1.8,1.1l0.6,1.6l-2.8,0.8l1.2,2.1l-2.1,0.6l1.2,5
		l0.5,1.8l1.4-1l1.4,0.5l3.2,3.6l-0.4,0.9l1.5,0.9l-0.7,2l0.8,0.4l-1.6,2.3l1.9-0.3l1.4,2.8l2.1-0.9l-0.3-1l1.3,0.5l-0.4,1.9
		l1.9,0.8l1.2,4.1l1.9,1.6l-1.3,0.6l0.5,1.2l1.1,0.3l0.5-1.3l0.7,1.2l-0.7,2.8l4.1-0.7l1.5,1l0.5-1.2l1.9,1.1l1.7-1.6l0.5-0.3l1.4,1
		l-0.3-1.4l1.2-0.3l0.7,2.4l1.8,0.3l0.8-2l9-0.4l-0.7-2.2l1.6-1.3l4.4,0.3l3.4,1l0.6,1l-0.9,1.4l2.3,0.1l0.7,1.1l-1.3,1.7l1.1,0.7
		l0.4-1.2l1.3-0.2l1.4,3.1h0.5l1.4,3.3l-2.9,2.3l1.6,0.3l0.4,4.2l2.3-1.4v1l1.2-0.2l-0.3,1.5l2.4,1.2l2.3-1.9l-0.2,1.5l3.3,1.6
		l-0.3,2.5l2.1-1.8l1.8,1l0.6-0.8l1.4-3.8l4.2,0.1l1.5-1.9l1.1,2l3.4-0.7l0.7-3.3l-0.9-1.7l0.5-2.4l1.9,0.1l0.7-2.2l2.5,0.4
		l-0.2-1.1l1.1-2l1.3,0.4v-1.4l1.8-2.9l1,0.5l-1.2,1.7l0.8,0.1l2-1.2l1.4-2.6l3.5-0.9l0.1,0.1l0.5,2.9l2.1,1.6v0.3l6.9-1.6l1.7,1.1
		l1.6,3.2l4.6-3.3l1.6,2.4l7.1,4.5l1.1,2.2l2.8,0.6l3.5,2.7l0.4,2.8l-1.5,3.8l3,0.5l2.2,3.7l-0.4,1.2l2.6,0.5l-1.2,2.8l2.4,0.3
		l0.5,1l3.2-1.1l2.2,0.5l2.6-2.2l-1.3-0.5l0.4-0.8l2.2,0.7l0.8-0.9l-0.5-1.3l1.3-0.4l-1.2-0.6l3.2-2l0.3-1.6l-3-5.1l1.4-2l-0.7-2.5
		l1-5.5l2.4-5.1l-2-3.3l0.3-4.8l3.3-5.6l1-4.4l1.9-1.4l-0.5-3.7l1.4-5.3l1.4-1.4l-0.2-3.8l1.4-3.3l4.6-4.5l0.3-2l4.3-2.5l2.3-5.7
		l3.2-3.4l-5.2-1.4l-5.9-3.8l-2.5,1.4l-2.7-1.8l-2.2,1.3l-0.1-0.7l-3.5,0.2l-0.2-1.1l-3.8-1.4l-1.3-4l-2.2,0.3l0.4-1.1l-3,0.7
		l-0.1,1.6h-1.4l-1.2,1.6l-1.8-0.8l-3.3,0.5l-2.2-2l-1.8,2.4l-0.6-4.3l-3.5-1.8l-3.7,0.5l0.9,1.8l-1,1.6l-3.5-0.6l-1-1.4l0.5-1.8
		l-1.1,0.1l-0.3-1.9l-1.1-0.5l0.4-1.2l-3.8-3.8l1.3-1.1l-2.3-2.1l0.6-1.1l-4.7-3.2l-2.4,0.9l-4.6-3.1l-4.1,1.2l-1,2.3l-1-0.8
		l-1.2,1.1l-2.3-0.2l-0.5-2.4l-3.6-0.3l-1.2-2.5l-2.4-1.2l-1,1.4l-3.8-0.6l-1.2,2.4l-2.1-1.3l-3.2,1.8l-0.6-3.9l-1.4-1.9l-0.8-0.9
		l-1.8-0.8l-1.3,1.2l0.6-2.4l-2.3-2.4l-3.8,0.2l-2.7-4l-3.6-2.2l-5.3,0.5l0.9-1.5l-1.1-2.7l1.5-2.5l-3.6-3.3l1.9-4l-0.8-1.5l1.2-2.2
		l0.8,0.8l-0.2-1.8l1.1-1l-2.3-1L359.6,56.7z"/>
	<path id="map_x5F_aquitaine" class="st0" d="M181.8,224.2l-1,0.8l-1.1,4l-1.9-0.8l-1.6,2.5l-1.9-0.9l1.4-1.8l-1.5-0.3l-0.7,0.8
		l-2.3-0.6l-4.8,0.8l-0.5,1.4l-2.8,0.7l0.8-1.5l-1.4-0.1l-2.4,1.1l0.5,1.7l-2.1,2l-2.7-0.4l-1.6,1.1l-2.7-1.2l-2.4,2l-1.6-0.3
		l1.3,0.7l-0.5,0.9h1.2l-0.5,0.6l2,0.7l-0.9,2l2.1,2.4h0.2l1.5,1h0.3l1,0.6l-0.7,0.7v0.2l-0.1,2l2.4,3l-0.9,0.7l1.6,1.3l-0.8,1.4
		l1.6,0.8l-0.5,2.5l0.9,2.4l-1.6,0.6l1.4,3.4l-1.3,3.2l0.8,0.4l0.5-1.2l2.5,1.5l-4,3.6l-1.9-0.5l-0.9,1.3l-3.9-1.9l-0.2-0.3
		l-0.7,1.4l-1.4-0.5l-1.7,0.9l-1.1-0.6l1.2-2.6l-4.5,1.2l-0.8,1.7h-1.5l-0.6,0.8l0.9,2.3l-3.3,2.6l-1.4,2.6l1.2,1l2.2-0.6l-0.9,1.1
		l1.7,0.6l-0.5,1.1l1.5,0.6l1.8,4.9h-2.5l1.4,1.3l0.2,1.6l-0.8,0.2l1,2l-1.5,2.6l-2.4,0.3l1.7,2.7l-3.8,0.9l0.1,4.9l0.5,1.1
		l-0.5-1.1l1-0.2l6.8,3.9l2,3.3l5.5,3.5l2.4,3.4l1.5,5.2l1.7,10.3l2.7,6.3l-3.4-3.3l-4.2-14.2l-9.8-8.8l0.5-1l-0.9-0.1l1.4-0.3
		l-0.8-2l-1.3,0.9l-2.4,4.2l-3.8,44l0.5,0.9l0.5-4l2.4-4.2l4.9,4.1h-1.4l1.9,0.9l0.5,2.3l-7.1-1.2l-2.4,6l-1.5,17.1l-5.8,28.7
		l-5.7,10.8l-2.5,2.4l-4.4,0.7l0.1,1.2l1.8,1.1l0.3,1.7l3.9-0.5l0.6,2.8l1.2,0.1l0.5-2l1.1-0.3l5.4,1.8l0.3,3.4l-1.2,3.2l-2.2,2
		l1.3,2.2l3.3,0.9l0.4-3.3l2.7-1.2l-1.4,2.5l1.7,1.3l1.3-0.6l2.4,1l0.8,1.4l1.1-0.8l6.3,3.5l7.1-0.7l0.8,3.5l2,0.6l4.6,5.3l1.7-2.5
		l2.4,1.6l1.8-0.2l3.1-2.5l-0.5-3.3l1.7-0.8l-0.3-3.5l1-1.6l3-0.7l-0.5-3.2l1.7-0.7l1.1-2.6l1.9,0.2l-0.2-2.4l0.9,0.2l1.2-2.6
		l-1.1-1.6l2.9-2.4l-1.3-1.4l0.1-3.7l-2.5,1.8l0.1-2.7l1.8-0.5l-1.8-3.8l-1,0.3l-0.1-2l-3-0.7l-2.4,0.7l-0.4-1.7l-1.2-0.2l-0.1-1.3
		l1.4-0.6l-0.3-2.7l2.1-1.5l-1.2-3.6l1.3-0.1l-0.5-2.4l0.8-0.5l-2-1.5l2.3-2.2l3.2,0.5l2.3-2.9l1.6,1.5l-1.1,1.3l3,1.7l0.6-1.1
		l-0.7-2.4l2.7-2.1l1.1,1.5l1.4-2.2l1.4-0.4l2.6,1.6l0.5-1l4.7-1l0.7-1.4h3.4l1.4-1.3l2.6,2.9l2.9-2l0.6-2.4l1.5-0.2l-0.4-1.7
		l2.7,0.9l1.2-0.6l-0.4-1.9l-1.2-0.5l2-0.4l1.6-4.2l-3.1-1.9l1-3.6l0.9-0.2l0.8,2l0.4-0.8l4.1-0.2l-0.2-3.2l-1.4-0.9v-3.3l-1.4-2
		l1.3,0.4l3.3-1.9l-0.4-1.1l2.3-2.4l-0.2-1.6l2.8-0.7l3.3-3l-0.6-2.9l2.5-0.8l-0.2-1.7l2.9-1.9l-1.1-1.7l1.1-0.3l-1.1-4l-0.2-0.6
		l1.4-0.8l3.3-1.4l0.3,0.9l3.7,0.1l3.8,4.7l1.9,0.7l3.9-2.9l1.5,1.4l1.4-1.2l2.8-0.1l1.4-0.4l0.4,0.1l1.3-1.1l-1.6-3.1l2.8-1.2
		l0.3-2.9l2-1.5l-1.2-0.8l-0.3-2.2l6.1-6.1l-0.5-3.9l4.9,2.3l1.8-1.2l-1.5-1.4l1.2-7.1l-2.1-2.3l0.9-2.4l1.4-0.1l0.1-3.5l-5-6.1
		l2.5-2.2h0.2l1.2,0.2l2.4-2.7l0.3-2.4l1.8-0.8l-0.4-3.3l-1.9-2.7l0.6-3.6l-3.2-6.7l-1.9-0.9l-0.4,0.7l-1.3-2.6l-0.8,1.2l-2.4-1.8
		l1.2-1.5l-1.7-0.5l-0.3-2.1l-3.2-0.5l-4,1l-4.1-1.8l-5.2,0.9l-2.1-1.6l-1.4,0.4l0.5,1.4l-1.2,1.9l-1.6-1.5l-2.2,1.6l-0.7-1.8
		l-2.4,1.5l-0.7-1.9l-4.1,4.2l-2.4-2.9l-1.5,0.3l-0.4,1.3l-3.2,0.3l-0.4-1.4l-1.2,0.3l0.7-0.9l0.5-1.7l-2.3-0.8l-0.3-3.2l-1.9-1.6
		h-2.7l-0.2-1.6l-3.8-1.9l-0.7-1.5l1.4-3.4l-0.5-1.8l-3.6-3.3l-0.7-3.3l-3.3-2.9l-0.5-3.8l-2.8-1.8l-1.9,0.1l1.2,2.7l-3.3-0.1
		l-2.5,1.6l-2.7-1.1l-1.5,1l-1.2-3.3l0.8-0.5l-0.4-2.9l-1.3,0.5l-0.9-1.6l-2.5,0.7l0.8-1.8l-0.7-1.3l-0.7,0.8l-1-0.4l0.2-1l-2.3,0.4
		l-1-2.4L181.8,224.2z M125.1,273.5l-1.9,0.7l1.1,2.3h2.7l5.6,3.2l2.2-1.1l-4.2-2.5l-2.3,0.4l-0.5-0.6l1-0.9l-3.3,1.4l-0.7-1.4
		l1.7-0.3L125.1,273.5z M128.9,284.7l0.8,5l4.3,3.8l1.4,4.2l1.6-3.3l-1.9-3.6l-0.1-3l-2.9-0.5L128.9,284.7z M177.7,423.7l0.4,0.2
		l0.2,3.3l-0.6-0.2l-0.9-0.9l1.1-0.5L177.7,423.7z M177,426.9l0.2,0.2l0.9,2.3l-1.5,1.1l-0.7-1.6l0.7-1.7L177,426.9L177,426.9
		L177,426.9z"/>
	<path id="map_x5F_alpes" class="st0" d="M293.2,244.8l-4.1,0.1l-2.8,3.6l-1.8-0.5l-1.4,1l-1.7-1.5l-0.5,1.4l-2.9,1.5l0.2,1.7
		l-0.9-0.7l-1.3,0.7l1,1.1l-1.1,1.6l1.4,0.8l0.4,2.3l-2.9,1.9l-1.9-0.7l-4.6,0.9l-1.4,2.5h-0.9l-0.6,2.7l0.3,2.1l1.7,0.5l-1.2,1.5
		l2.4,1.8l0.8-1.2l1.3,2.6l0.4-0.7l1.9,0.9l3.2,6.7l-0.6,3.6l1.9,2.7l0.4,3.3l-1.8,0.8l-0.3,2.4l-2.4,2.7l-1.2-0.2h-0.2l-2.5,2.2
		l5,6.1l-0.1,3.5l-1.4,0.1l-0.9,2.4l2.1,2.3l-1.2,7.1l1.5,1.4l-1.8,1.2l-4.9-2.3l0.5,3.9l-6.1,6.1l0.3,2.2l1.2,0.8l-2,1.5l-0.3,2.9
		l-2.8,1.2l1.6,3.1l-1.3,1.1l-0.4-0.1l-1.4,0.4l1.5,2.9l-0.5,2.4l3,4.3l-1.5,4.7l1.1,0.1l0.5,3l1.3,1.1l0.5-1.7l2.9-1l1.2-0.1l1,1.5
		l4.9-0.5l0.6-2l2.3-1.6l-0.4-1.7l1.9-2l0.2-2.8l4.9-5l1.4,1.5l-0.1,3l3.3-1l1.1,4.4l1.2-0.2l0.6,1l-1,0.6l0.9,4.2l1.7,1.9l2.2-3.7
		l0.3-4.3l1-2l1,0.2l0.2-1.7h0.2l0.8-2l2.3,2.2l1.6-1.4l0.2-2.5l1.6,0.5l3.3-2.5l1.6,1.8l0.1,2.3l2.3,4.6l4.1-0.9l0.2-2.6l1.4-0.3
		l1.6,1.3l-0.3,1.4l2.9-0.5l0.6,2l1.8,1.9l1.3-0.4l-0.3,1.3l0.9,0.2l1.5,7.8l1.9,1.3l1.4,5.1l3,3.4l-1.1,0.7l0.3,3.7l3.1-0.9
		l4.7,3.6l2.6-3.7l2.4-0.5l0.1,2.9l1.6,0.4l0.5-2.9l2-0.3l5.3,3.7v-3.1l5.1,0.9l1.2,4.4l9-4.1l1.8,1.5l1.6-1.7l0.6-0.3l-0.5,4.2
		l2.9,1.1l0.7-1.1l1.8,1.3l2.2-0.4l1.1,0.7l-0.1,2.4l2,0.2l0.7,1.7l3.3-0.7l2.3-3.1l1.4,1.3l-0.3,0.9l1.8,0.2l0.2-0.9l-1.4-0.5
		l1.6-1.3v-3.6h-1.4l-0.4-1.7l-1.1-0.3l0.8-1.4l-3.1,0.2l-1-1.1l-1.1,0.7l-2.4-2l-0.5-2.6l2.2,0.3l0.8-0.9l-1.3-0.5l-0.3-2.7
		l5.8,1.4l0.5-1.5l1.4-0.1l-2.5-2.2l1.9-3.4l-0.2-2.1l3.3,0.6l0.7-1.2l1.5,0.5l1.5-1.9l-1.2-0.8l1.1-2.8l2.1,0.7l2.5-0.7l1.1-1.1
		l-1.2-1.3l2.5-1.6l1.4,1l2.9-2.5l4.2,0.6l1.6-1.2l2.4,1l0.1-4.3l-1.4-0.7l0.1-2.4l-4.4-0.9l1.5-5.4l1.8,0.6l1.4-0.8l1.2,2.8l3.3,1
		l1.4-0.2l-0.3-2l1.1-0.9l1.2,0.5l1.4-1.3l2,0.8l5.1-2.6l3.1,1.7l1.6-0.5v-1.7l2-0.1l2.1-2.7l2.5,0.5l2.4-2.4l-0.9-3.7l2.9-4.1
		l-2.7-1.4l-0.5-2l-1.9-0.2l0.2-1.2l-2.1-0.5L439,309l0.9-2.8l-3.2-0.6l-4-3.9l0.5-5.9l3.3-0.2l3.2-1.7l1.8-2.8l-0.3-1.6l-3.8-5.9
		l-2.2,0.9l0.8-4.1l-3.7-0.7l0.3-3.5l2.3-4.1l-3.4-4l1.8-3.8l-5.1-1.5l-6.1-0.1l-9.9,5.2l-1.2,2.6l1,0.5l0.5,2.8l1.8-0.3l-0.5,1.6
		l-6.1,4.5l-2.9-0.6l-3.4,1.3l1.4-2.9l-1.1-0.8l0.5-1.1l5.3-1.9l-1-1.8l2.5-4.3l-3.9-2.6l-7.2,8.1l-5.3,0.2l-0.5-2.6l-2.5-0.8
		l-0.1-1.1l-3.8,4.1L383,273l0.1-2.8h-1.5l-0.5-1.7l-0.7,2l-1.6-3.3l0.6-0.6l-2.9-1.6l0.5-1.8l-3-0.6l-1.1-2.6l-1.4-0.7v0.8
		l-4.1,1.1l-2.7-1.6l-1.3,0.7l-0.4-1l-6,18.3l-0.8,0.2l-1.4-1.2l0.6-2.1l-2.1-1.4l1.2-1.1l-1.2-1.5l-1.6,0.3l-0.7,1.9l-1.9-1.5
		l-2.4,1.4l-1.7-1.6l-2,0.1l-1.3,5.9l-3.5,1.6l-1-0.1l0.2-1.5l-1.1,0.5L336,277l-1.1,1.1l-2.8-1.4l-4.2,1.6l-0.6-1.8l-3.1-0.6
		l0.4-3.3l1.8-2.4l2.2-0.3l-0.7-0.1l-0.4-3.7l0.9-3.3l-1.9-1.7l-3.1-0.1l-1.1-2.4l-1.3,0.7l-2.4-1.1l-0.2-3.3l-3.6-5.6l-0.5-2.6
		l-1.4-0.4l0.3,2.1l-1.8,0.1l0.5,1.8l-3.8,2.1l-1.4-3.3l-1.5,0.1l-1.2,1.5l-2.9-1.8l-2.6,2.3l-5.2-4L293.2,244.8z M365.1,369.5
		l0.2,0.4h0.4l0.5,0.5l2.6,1.6v0.3L367,373l-1.4,3.4l-3.6-0.6l-0.5-2.4l1.4-2.4l0.4-0.5l0.3-0.2l0.6-0.2L365.1,369.5z"/>
	<path id="map_x5F_bourgogne" class="st0" d="M306,156.8l-0.5,1.5l-1.1,0.2l-7.2-0.2l-1.4,1.4l-2.1-0.6l-1.2,3.1l1.2,3.1l-1.6,2.4
		l-2.5,1.4v1.2l3.3,1.7l-0.5,1l0.7-0.1l0.5,2.4l2.8,2.4l-0.9,0.5l1.1,2.6l-1.3,1.4l-0.2,0.2l-3,2.1l-0.5,2.2l1.4,1l-0.3,3.4
		l-6.4,1.6l-0.2,2.3l1.2-0.2l1.8,2.2l1,2.1l-0.6,2.5l1.5,1.6l-4.2,1.3v-0.1l-0.5,0.7l3.1,5.4l-2.4,5.4l4.2,4.2l1.8,7.7l-0.5,3.2
		l2.3,2.3l0.1,3.6l-1.1,2.6l0.7,3.1l-1.4,3.1l1,2.4l5.2,4l2.6-2.3l2.9,1.8l1.2-1.5l1.5-0.1l1.4,3.3l3.8-2.1l-0.5-1.8l1.8-0.1
		l-0.3-2.1l1.4,0.4l0.5,2.6l3.6,5.6l0.2,3.3l2.4,1.1l1.3-0.7l1.1,2.4l3.1-0.3l1.9,1.7l-0.9,3.3l0.4,3.7l0.7,0.1l-2.2,0.3l-1.8,2.4
		l-0.4,3.3l3.1,0.6l0.6,1.8l4.2-1.6l2.8,1.4l1.1-1.1l0.7,0.9l1.1-0.5l-0.2,1.5l1,0.1l3.5-1.6l1.3-5.9l2-0.1l1.7,1.6l2.4-1.4l1.9,1.5
		l0.7-1.9l1.6-0.3l1.2,1.5l-1.2,1.1l2.1,1.4l-0.6,2.1l1.4,1.2l0.8-0.2l6-18.3l0.4,1l1.3-0.7l2.7,1.6l4.1-1.1v-0.8l1.4,0.7l1.1,2.6
		l3,0.6l-0.5,1.8l2.9,1.6l-0.6,0.6l1.6,3.3l0.7-2l0.5,1.7h1.4l-0.1,2.8l2.4-0.2l3.8-4.1l0.2,1.1l2.5,0.8l0.5,2.6l5.3-0.2l7.2-8.1
		l0.3-2.5l3.2-4.4l-1.7-1.7l12.7-10.7l-0.8-2l1.3-4.1l-1.2-2.2l2.4-2.5l4.6-1l3.6-3.2l-0.6-1.7l5.1-3.6l0.7-0.9l-0.6-0.4l4.2-3.8
		l-0.5-2.4l2-0.5l0.5-1.6l1.7-0.5l-0.3-1.5l-1.2-0.5l-5.1,1.1l2.3-4.3l2.4-1.2l-0.7-2.2l5.5-0.5l0.4-1.2l-2.2-3.7l-3-0.5l1.5-3.8
		l-0.4-2.8l-3.5-2.7l-2.8-0.6l-1.1-2.2l-7.1-4.5l-1.6-2.4l-4.6,3.3l-1.6-3.2l-1.7-1.1l-6.9,1.6v-0.3l-2.1-1.6l-0.5-2.9l-0.1-0.1
		l-3.5,0.9l-1.4,2.6l-2,1.2l-0.8-0.1l1.2-1.7l-1-0.5l-1.8,2.9v1.4l-1.3-0.4l-1.1,2l0.2,1.1l-2.5-0.4l-0.7,2.2l-1.9-0.1l-0.5,2.4
		l1.3,1.8l-0.7,3.3l-3.4,0.7l-1.1-2l-1.5,1.9l-4.2-0.1l-1.4,3.8l-0.6,0.8l-1.8-1l-2.1,1.8l0.3-2.5l-3.3-1.6l0.2-1.5l-2.3,1.9
		l-2.4-1.2l0.3-1.5l-1.2,0.2v-1l-2.3,1.4l-0.4-4.2l-1.6-0.3l2.9-2.3l-1.4-3.3h-0.5l-1.4-3.1l-1.3,0.2l-0.4,1.2L360,184l1.3-1.7
		l-0.7-1.1l-2.3-0.1l0.9-1.4l-0.6-1l-3.4-1l-4.4-0.3l-1.6,1.3l0.7,2.2l-9,0.4l-0.8,2l-1.8-0.3l-0.7-2.4l-1.2,0.3l0.3,1.4l-1.4-1
		l-0.5,0.3l-1.7,1.6l-1.9-1.1l-0.5,1.2l-1.5-1l-4.1,0.7l0.7-2.8l-0.7-1.2l-0.5,1.3l-1.1-0.3l-0.5-1.2l1.3-0.6l-1.9-1.6l-1.2-4.1
		l-1.9-0.8l0.4-1.9l-1.3-0.5l0.3,1l-2.4,0.9l-1.4-2.8l-1.9,0.3l1.6-2.3l-0.8-0.4l0.7-2l-1.5-0.9l0.4-0.9l-3.2-3.6l-1.4-0.5l-1.4,1
		l-0.5-1.8L306,156.8z"/>
	<path id="map_x5F_bretagne" class="st0" d="M60.8,212.7l1.1,1.4l2.3-0.1l0.6,1.9l2.9,0.8l-0.5,1.5l-6.1-0.9l-0.9-2.7L60.8,212.7z
		 M61.6,130.7l0.2,2l5-2.1v2.7l2.8-0.2l0.3,1.4l-1.4,1.1l4.2,1.4l-0.6,2l4.7,4l-0.2,3.1l4,2.3l-1,1.7l1.1-0.5l1.4,2.5l-0.4-2.5
		l2,0.7l2.7-4.3l3.1-1.3l-0.5-1.3l1.9-0.5l0.6,1.4l3.7-3.3l1.3,1.2l-2,2.7l0.9,0.5l2.6-1.9l1.3,3.3l-0.5,2.1l1.1-3.3l0.6,2l1.1-2.4
		l1,1l-1-1.9l3.8-0.3l0.4,2.2l1.5,1l-0.7,0.6l1.6,1.5l-0.5,2.7l0.7-1.7l1,0.4l-1.8-3.5l1.4,0.8l-0.5-1.2l-2-0.4l0.5-1l-1.4-1.1
		l1.5-2.8l5.5-1.6l0.3,1.9l-1.2,2.4l3.3,1.9l7.6-1.7l3.2,8.1l2.5,1.6l2.5-0.5l3.7-4.2l6.8,2l-0.5,5.2l1.4,4.8l-2.1,3.4l0.8,3.4
		l0.2,0.2l2.2,10.9L138,181l-3.3,10.3l-4.2-1.3l-0.9-1.6l-3.3-0.4l0.2,1.8l-5.5,2.2l-1.4,3l-7.4,0.1l-3.4,2.1l-0.7-1.3l-4,2.4
		l-0.6,6.4l-2.3,0.6l-0.3,1.7l-0.8-1.3l-2.3,1l-2-1.2l-0.7,3.1l-3.2,0.3l-0.8-1.2l-1.3,1.6l-1.4-0.1l-0.3-2.4l2.3-0.4l-2.5-1.4
		l-11.3,2.1l-3.5-3.6h-2l-1-1.4l-0.5,0.7l-0.7-1.4l0.2,1.4l-3.8-0.1l-0.2,3.1l1.8,2.5l-1.6-0.5l-1.2-3.1l1-0.8l-0.5-2.8l-5.1-4.9
		h-2.8l-0.2-1.4l-3.3,0.8l-2.8-3.7l-5.6-0.7l-1.8-1.6l-4.7,0.8l-1.8-2.4l0.7-1.4l-1.1,0.5l-1.4-2.9l-1.6,1.1l0.5,1.6l-2.5,0.6
		l-2.4-1.6l-1.5,0.8l-1.7,3.3h-6.5l0.4-5l-2.4-4.1l-3.3-2.4l-2.4,0.7l-2.4-1.6l-3.8-0.5l1.1-0.3l-0.2-1.2l11-2.4l4.1,1l1.4-2.3
		l-1.8-4.1l-5.4-2l-1.4,0.4l-2.1,3.3l-0.5-3.5l1.1-0.8l-3-0.3l-0.3-1.4l2.2-0.2l-0.1-2.7l1.4-0.5l-0.9,2.2l0.8,1.1l1.4-1.5l-0.1,1.7
		l1.9-0.9l2,1.3l3.3-1.3l1.7,1l1.4-1.9l-1,0.8l-3.3-0.9l1.3-0.9l-1.1-0.5l0.5-1.3l-2.1,2l-1.6,0.1l0.7-1l-2.3,0.9l2.2-3.2l-0.9-0.7
		l-6.6,3.1l-2.8-1l-1,1.4H4.3L3.7,159l1.1-1.2l-1.3-1.7l1.3-3.1l-0.6-2.7l1.8-2.3l4.4-1.2l0.2-1.5l1.6,0.4l0.8-2.2l1.6,0.9l3.6-0.9
		l-1.4-1l3.3-1.3l1.9,0.7v1.7l3.7-1l-1-0.4l1.4-1.6l3.3-0.5l1.5,1.1l0.2-1.7l1.7-1.3l0.3,0.9l1.2-0.9l-0.1,3l1.5,0.6l0.2-2.1
		l0.1,1.4l2.9,0.8l-0.4-1.6l0.9-1.4l0.5,0.8l-0.1-1.1l5.3,1.9l1.4-0.5l-0.5,2.1l1.4-1.5l1.5,0.9l-0.1-3l1.4-1.2l-1.4-0.7l0.6-2.2
		l-0.7-0.6l1.2,0.8l1.9-2.7l0.5,1.1l0.5-1l0.8,1.3l1.2-0.3l-0.5,1.3l1.6-0.1l2.9-2.2l2.2,0.2L61.6,130.7z"/>
	<path id="map_x5F_centreloire" class="st0" d="M236.7,126.7l2.4,2.8l-0.6,1.2l2,1.7l-0.6,4.3l1.7,0.8l-1.9,2.5l1.4,0.8l-0.4,1.4
		l2.4,2.9h1.8l-0.2,2.1l2.9,1.4l-0.5,2.3l1,2.6l2.5,1.4l2.3-0.9l-0.1,2.9l1.9,0.3l0.4,2.2l-1.2,3l0.5,1.3l7.1-0.5l-0.5-1l1.1,0.3
		l0.8-1.8l1.6,0.7v1.9l2-0.8l0.2-0.4l0.9-0.8l1.2,1.4l1.7-0.5l0.7,3.2l3.4,1.9v3.3l-1.3,0.1l-1.4,2.3l4.2-1l5.4,1l1.8-1.3l-0.6-1.2
		l1,0.7l1.4-0.8l0.8,2.2l1.7-1.4l2.6-0.4l3.3,1.7l-0.5,1l0.7-0.1l0.5,2.4l2.8,2.4l-0.9,0.5l1.1,2.6l-1.3,1.4l-0.2,0.2l-3,2.1
		l-0.5,2.2l1.4,1l-0.3,3.4l-6.4,1.6l-0.2,2.3l1.2-0.2l1.8,2.2l1,2.1l-0.6,2.5l1.5,1.6l-4.2,1.3v-0.2l-0.5,0.7l3.1,5.4l-2.4,5.4
		l4.2,4.2l1.8,7.7l-0.5,3.2l2.3,2.3l0.1,3.6l-1.1,2.6l0.7,3.1l-1.4,3.1l-4.1,0.1l-2.8,3.6l-1.8-0.5l-1.4,1l-1.7-1.5l-0.5,1.4
		l-2.9,1.5l0.1,1.7l-0.9-0.7l-1.4,0.7l1,1.1l-1.1,1.6l1.4,0.8l0.5,2.3l-2.9,1.9l-1.9-0.7l-4.6,0.9l-1.4,2.5h-0.9l-0.6,2.7l-3.2-0.5
		l-4,1l-4-1.8l-5.2,0.9l-2.1-1.7l-1.4,0.4l0.5,1.4l-1.2,1.9l-1.6-1.5l-2.2,1.6l-0.7-1.8l-2.4,1.5l-0.7-1.8l-4.1,4.2l-2.4-2.9
		l-1.5,0.3l-0.4,1.3l-3.2,0.3l-0.4-1.4l-1.2,0.3l0.7-0.9l0.5-1.7l-2.3-0.8l-0.3-3.2l-1.9-1.6h-2.7l-0.2-1.7l-3.8-1.9l-0.7-1.5
		l1.4-3.4l-0.5-1.8l-3.6-3.3l-0.7-3.3l-3.3-2.9l-0.5-3.8l-2.8-1.8l-1.9,0.1l1.2,2.7l-3.4-0.1l-2.5,1.6l-2.7-1.1l-1.5,1l-1.2-3.3
		l0.8-0.5l-0.4-2.9l-1.3,0.5L190,230l-2.5,0.7l0.8-1.8l-0.7-1.3l-0.7,0.8l-1-0.4l0.2-1l-2.3,0.4l-1-2.4l0.8-6.4l3.9-5.4l-1.1-1
		l2.6-5.5l0.2-1.5l-1.2-0.6l1.4-3.2l-0.1-0.5l5.6,1.9l0.7-0.5l-1.4-2.3l0.7-1.4l2.4,1.4l0.5-1.4l4.9-1.5l0.8-1.2l-0.9,0.3l-0.4-1.6
		l1.5-1.9l2.8-0.8l-0.4-0.9l2.9-2.7l-0.3-3.7l1.1-0.6l0.8,1.3l0.2-2.4l1.3-0.5l-1.2-2.5l0.9-2.4l-1.7-0.5l0.1-2.2l1.9-0.1l0.1-1.3
		l-1.2-0.3l1-0.3l0.4-1.6l2.4-0.3l-4.3-3.1l1.3-1.1l-1.6-2.6l0.7-1.6l-1.9-0.6l0.5-1.3l5.3-2.8l2.4-3.7l-1.5-2.1l1.2-2.6l-5.4-4.9
		l-0.1-3.3l1.8-1l0.5-1.5l4.2-0.5h0.8l2-1.9l2,0.6l0.3-2.4l3.7,1.8l4.1-0.2l1.5-1.1l-0.4-3.1l3.6-2.2l-0.5-2.9L236.7,126.7z"/>
	<path id="map_x5F_idf" class="st0" d="M244.2,110.2l1.4,0.5l-0.5,1.7h0.4l0.7,1.1l1.8-0.5l3,1.3l4.3-0.7l3-2l3.3,2.7l1.8-0.9
		l0.5,1.6l2-0.5l1.1-1.5l1.6,2.2l0.6-0.6l2.4,0.7l-0.2,0.7l1-0.5l1.6,1.4l-0.5,0.6l1.5,0.4l0.7-1.4l1.2,2.5l1.8-1.6l3.7,2.7l2.8-2.1
		l1.6,1.5l4.3-1.2l0.7,1.2l0.8-1.2l2.2,0.4l0.1-1.8l2.5,0.6l2,3.2l-0.9,2.2l3.2,2.3l0.5,1.9l1.5-0.5l0.9,2.4l1.4-1.2l0.5,3.3
		l2.4,0.6l0.5,1.3l0.9-0.8l0.1,2.2l-3.2,0.3l1.5,1l-1.8,1.8l2.8,1.2l-0.6,5.7l3.2-0.6l-0.5,0.7l1.4,0.9l-2.2,0.6l0.5,0.8l-1.8,1.1
		l0.6,1.6l-2.8,0.8l1.2,2.1l-2.1,0.6l1.2,5l-1.4-0.5l-0.5,1.5l-1.1,0.2l-7.2-0.2l-1.4,1.4l-2.1-0.5l-1.2,3.1l1.2,3.1l-1.6,2.4
		l-2.5,1.4v1.2l-2.6,0.4l-1.7,1.4l-0.8-2.2l-1.4,0.8l-1-0.7l0.6,1.2l-1.8,1.3l-5.4-1l-4.2,1l1.4-2.3l1.3-0.1V167l-3.4-1.9l-0.7-3.2
		l-1.7,0.5L267,161l-0.9,0.8l-0.2,0.4l-2,0.8v-1.9l-1.6-0.7l-0.8,1.8l-1.1-0.3l0.5,1l-7.1,0.5l-0.5-1.3l1.2-3l-0.4-2.2l-1.9-0.3
		l0.1-2.9l-2.3,0.9l-2.5-1.4l-1-2.6l0.5-2.3l-2.9-1.4l0.2-2.1h-1.8l-2.4-2.9l0.4-1.4l-1.4-0.8l1.9-2.5l-1.7-0.8l0.6-4.3l-2-1.7
		l0.6-1.2l-2.4-2.8l-0.4-1.5l1-0.6l-1.8,0.2l0.3-2.2l-1.2-2.3l1.5,0.2l0.8-2l0.5,0.9h0.2l3.5-0.9L244.2,110.2z"/>
	<path id="map_x5F_occitaine" class="st0" d="M238,337.5l-3.3,1.4l-1.4,0.8l0.2,0.6l1.1,4l-1.1,0.3l1.1,1.7l-2.9,1.9l0.2,1.7
		l-2.5,0.8l0.6,2.9l-3.3,3l-2.8,0.7l0.2,1.6l-2.2,2.4l0.4,1.1l-3.3,1.9l-1.3-0.4l1.4,2v3.2l1.4,0.9l0.2,3.2l-4,0.2l-0.4,0.8l-0.8-2
		l-0.9,0.2l-1,3.6l3.1,1.9l-1.6,4.2l-2,0.4l1.2,0.5l0.4,1.9l-1.2,0.6l-2.7-0.9l0.4,1.7l-1.5,0.2l-0.6,2.4l-2.9,2l-2.6-2.9l-1.4,1.4
		l-3.4-0.1l-0.7,1.4l-4.7,1l-0.5,1l-2.6-1.6L189,391l-1.4,2.2l-1.1-1.5l-2.7,2.1l0.8,2.4l-0.6,1.1l-3-1.7l1.1-1.3l-1.6-1.5l-2.3,2.9
		l-3.2-0.5l-2.3,2.2l2,1.5l-0.8,0.5l0.5,2.4l-1.3,0.1l1.2,3.6l-2.1,1.5l0.3,2.7l-1.5,0.6l0.1,1.3l1.2,0.2l0.4,1.7l2.3-0.7l3.1,0.7
		l0.1,2l1-0.3l1.8,3.8l-1.8,0.5l-0.1,2.7l2.5-1.8l-0.1,3.7l1.3,1.4l-2.8,2.4l1.1,1.6l-1.2,2.7l-0.9-0.2l0.2,2.4l-1.9-0.2l-1.1,2.6
		l-1.8,0.7l0.5,3.2l-3,0.7l-1,1.6l0.3,3.5l-1.7,0.8l0.5,3.3l4.6,3.2l1-0.5l1.8,3.6l1.6,0.5l0.5,1.3l2.1,0.4l6.6-2.6l3.2,1.1l1.3,2.2
		l2.4-2.5l2.4,1.7l6.5-0.7l3,0.7l0.1-1.8l-1.4-1.4l0.9-1.1l-0.8-0.4l0.9-1.1l-0.5-1.7l1.8-1.2l8.1,3.6l1.3-0.8l0.9,1l3.5-0.1l3.3,4
		l2.3-1l4.6,0.5l3,5.8l1.5-0.5l0.1-1.9l2.6-0.2l1.8,1.4l5.1,0.5l-0.4,1.4l2.5,0.1l-0.2,0.7c0,0,0,0-1.9,1l-0.4,3.1l3.4,0.5l2.2,1.9
		l2-0.2l1.1,3.5l2,1.7l2.6-0.7l2.6-3.1l1.7,0.4l2.1-1.1l6.5,2.3l1.8,2.7l1.8,0.4l1.7-1.3l3.4,0.9l-0.7-2.4l0.8-0.9l2.2-1l1.7,0.6
		l2.3-2.4l2.9,0.1l1.1-1.3l0.7,0.8l2.8-0.4l1.7,2.4l3.3-0.5l-1.6-2.4l0.5-1.7l-3.4-1.2l-0.7-8.2l1.2-10.8l-0.6-2.4l1.4-4.6l3.6-5.9
		l6-4.8l-0.4-1.1l6.4,1.1l0.3-0.8l-0.2,0.9l5.1-5.9l3-0.9l9-8l5-0.4l1.2,1.1l-0.7,1.2l0.6,1.2l3.5,1.4l0.4-2l3.1-1.5l-0.4-1.4l0.7,1
		l4.7-2.8l0.4-1.2l-1.7-0.6l2.3-3.7l2.1-0.5l3.3,1.1l-0.5-2.1l2.1-6.1l-1-1.1l6.4-4.9v-1.3l1.2-0.1l-2.2-3.9l-2.4-0.8v-5.4l-0.5-1.4
		l-1.3-0.1l-0.9-2.9l-5.3-3.7l-2,0.3l-0.5,2.9l-1.6-0.4l-0.2-2.9l-2.4,0.5l-2.6,3.7l-4.7-3.6l-3.1,0.9l-0.3-3.7l1.1-0.7l-3.1-3.4
		l-1.4-5.1l-1.9-1.3l-1.5-7.8l-1-0.2l0.3-1.3l-1.3,0.4l-1.8-1.9l-0.6-2l-2.9,0.5l0.3-1.4l-1.6-1.3l-1.4,0.3l-0.2,2.6l-4.1,0.9
		l-2.3-4.6l-0.1-2.4l-1.6-1.7l-3.2,2.5l-1.6-0.5l-0.2,2.5l-1.6,1.4l-2.3-2.2l-0.8,2h-0.2l-0.2,1.7l-1-0.2l-1,2l-0.3,4.3l-2.2,3.6
		l-1.7-1.9l-1-4.2l1-0.6l-0.6-1l-1.2,0.3l-1.1-4.4l-3.3,1l0.1-3l-1.4-1.5l-4.9,5l-0.2,2.8l-1.9,2.1l0.4,1.7l-2.3,1.6l-0.6,2
		l-4.9,0.5l-1-1.5l-1.2,0.1l-2.9,1l-0.5,1.7l-1.3-1.1l-0.5-3l-1.1-0.1l1.5-4.8l-3-4.3l0.5-2.4l-1.5-2.9l-2.8,0.1l-1.4,1.2l-1.5-1.4
		l-3.9,2.9l-1.9-0.8l-3.8-4.7l-3.7-0.1L238,337.5z M177.7,423.7l0.2,2l-1.1,0.5l0.9,0.9l0.6,0.2l-0.2-3.3L177.7,423.7z M177,426.9
		L177,426.9l-0.4,0.2l-0.7,1.7l0.7,1.6l1.5-1.1l-0.9-2.3L177,426.9z M254.2,468.3l0.9,2l-2-0.5L254.2,468.3z"/>
	<path id="map_x5F_hdf" class="st0" d="M275.3,3.2l-6.1,2.5l-1.1-0.7l-5.5,1.9l-0.3-0.7l-0.5,2.2l-1.2-1.1l0.5-1.1l-2,2.1l-0.5-0.6
		l-9.4,2.4l1.1,0.2l-4.7,1.5l-3.2,3.3l-3,0.9l1.2,3.9L240,24l-0.7,0.9l-0.4-1.4l-0.2,0.9l0.5,9.1l2.2,3.3l-1.8-1.4l-1.2,8l2.9,2.4
		l-0.1-0.1l-2.7-0.2l-0.6,5.1l5.5,5l-1,0.8l-2.7-0.7l-0.7-1.7l-1.7,0.5l-2.6,5.7l-2.8,2.6l2.7-0.4l0.2,1.8l9.7,8.8l0.8,4.1l2,3.1
		l-1.4-0.1l-2.3,3.9l0.6,0.8L246,84l-2,2.9l0.9,1.2l-0.7,2.4h-0.2l2,2.5l-1.2,2l1,0.8l0.5-1.3l1.2,0.5l-0.7,2l-0.4,0.3l-1.8,3.3
		l1,0.1l-0.7,0.7l1.4,1.5l0.5,4.2l1.2,1l-0.5,1.6l-1.2-1.5l-1.8,0.5l-0.2,1.9l1.4,0.5l-0.5,1.7h0.4l0.7,1.1l1.8-0.5l3,1.3l4.3-0.7
		l3-2l3.3,2.7l1.8-0.9l0.5,1.6l2-0.5l1.1-1.5l1.6,2.2l0.6-0.6l2.4,0.7l-0.2,0.7l1-0.5l1.6,1.4l-0.5,0.6l1.5,0.4l0.7-1.4l1.2,2.5
		l1.9-1.6l3.7,2.7l2.8-2.1l1.6,1.5l4.2-1.2l0.7,1.2l0.8-1.2l2.2,0.4l0.1-1.8l2.5,0.6l2,3.2l-0.9,2.2l3.2,2.3l0.5,1.9l1.5-0.5
		l0.9,2.4l1.4-1.2l0.5,3.3l2.4,0.6l0.6,1.3l0.9-0.8l1.6-3.3l1.6-0.2l0.1-1.4l1.1-0.2l-0.5-1l3.3-3.1l-1-1.6l-2.4,0.4l0.1-1.4l1.9-1
		l-1.4-2.4l0.8-1.8l3.1,0.5l1.6-0.9v-1.3l-1.3,0.3l-0.6-1.7l-0.6,0.5l-1.1-0.9l0.9-1.3l-1.3-4.4l4.9-2.4l2.8,0.6l0.2-2l2.5-1.5
		l1.4,1.7l2.9,1l0.1-4.4l1.2-0.5l-1-3.4l1.4-1l-1.1-1.2l1.1-1.5l-2.1-2.9l0.6-0.9l2.8,0.3l0.5-2.6l2.2-1.2l2.4-3.3l-1.6-1.4l1.8-5.1
		l0.1-2.1l-1.4-0.5l0.5-2.6l-3.3-1.2c-2.6,0.7-2.5,0.7,0,0l0.7-3.9l2.6-1.3l-1.1-3.6H334l1-1.7l-0.2-2.9l2.6-2.4l-0.5-1.1l-1.7-1
		l0.2,1.8h-1.1l-0.8-2.6l-1.5-0.5l-2-2.8l-4.5,1.9l-2-1.4l-3.8,0.1l-1.4,2.7l-1.9-3.7l0.1-5l-2-2.4l-4,0.5l1.1-2.6l-1.6-0.5l-1,1.5
		l-2.7,0.9l-3.2-2l-2-7.8l0.8-2.6l-2.6-1.4l-1.5-3.7l-7.3,2.3l-1.8,3.4l-2.3-1.8l-2-0.1l-2.7-5l-3.3-0.1l-1.4-2.2l-0.4-4.1l1.5-1.6
		l-2.4-3.4L275.7,5L275.3,3.2z M242.7,47.5C249.1,45.2,249.1,45.2,242.7,47.5L242.7,47.5z"/>
	<path id="map_x5F_normandie" class="st0" d="M234.7,62.4l-2.7,0.4l-6.8,5.4l-3.9,1.9l0.3,1.2l-0.4-1l-2.4,1.1l-2.2-0.6l-7,3
		l-6.9,1.1l-9.3,6.2l-4.8,2l-2,3l-1.2-0.5l1.1,1.4l-3.3,7.8l1.8,2.3l5.8,1.8l0.9-0.7l-0.4,1l-6.4,0.1l4.2,0.2l-3.5,1.5l-4.7,4.3
		l-8.2,2.5l-0.8-1.2l-1.4,0.5l-4.2-2.4l-13.4-0.9l-7.8-2.8l-4,0.5l-1.5,2.6l-1.4-1.1l-1.7,1.6l1.3-4.1l-5.2-8l0.5-2l1-0.2v0.8
		l0.6-2.4l1,0.4l-1.4-5.1h-7.7l-0.5,1.6l-4.4,0.6l-0.5,1.3l0.2-1.4l-7.7-1.8l-1-1.6l-1.4,0.7l-1.8-1.2l-0.5,3l2.7,0.9l1,1.6l0.3,3.3
		l-1.8,2.1l1.5,1.7l1.4,7.5l3.8,2.5l3,6.8l0.5-1.4l1.7,0.7l-1.7,0.2L122,121l0.8,2.2l0.6-2.2l2.1,1l-2-0.4l-0.2,4.8l0.8,0.5
		l-2.8,5.4l1.5,0.7l0.2,4.2l4.5,5.2l2.3-1.2l-0.9,0.9l2.2,1.5l-2.7-0.6l-2.4,1.2l-0.7-0.8v1l-2.3-0.8l3.2,8.1l2.5,1.6l2.5-0.5
		l3.7-4.2l6.8,2l2.4,1.1l1.8-1.6l1.7,1.2l2.4-0.2l1.2,2.5l1.3-0.5l0.7,1.6l1.7-0.8l-0.6-1.4l1.5,0.3l0.9-1l0.5,2.4l3.7-1.6l1.5-2
		l4.2-0.1l1.6,1.4l1.2-2.2l1.9,0.8l1.1-1.6l-0.3-1.6h1.5l2.4,2l-1.1,1l1,3l3.5,0.4v4.2l1.9-1.3l2.2,1.1l0.5-1.7l3.3-1.9l-0.5-0.9
		l5.8-1.3l3.1,3.2l0.4,5.7l3.3,1.4l0.4-0.6l1.7,3.3l3.8,0.9l0.5-1.7l3.2,4.2l2.3-0.4l1.3-1.1l-1.6-2.6l0.7-1.6l-1.9-0.6l0.5-1.3
		l5.3-2.8l2.4-3.7l-1.5-2l1.2-2.6l-5.4-4.9l-0.1-3.3l1.8-1l0.5-1.5l4.2-0.5h0.8l2-1.9l2,0.6l0.2-2.4l3.7,1.8l4.1-0.2l1.5-1.2l-0.4-3
		l3.6-2.1l-0.5-3l2-0.9l-0.4-1.5l1-0.6l-1.8,0.2l0.3-2.2l-1.2-2.3l1.5,0.2l0.8-2l0.5,0.9h0.2l3.5-0.9l3.1-8.2l0.2-1.9l1.8-0.5
		l1.2,1.5l0.5-1.6l-1.2-1l-0.5-4.2l-1.4-1.5l0.7-0.7l-1-0.1l1.8-3.3l0.4-0.3l0.7-2l-1.2-0.5l-0.5,1.3l-1-0.8l1.2-2l-2-2.5h0.2
		l0.7-2.4l-0.9-1.2l2-2.9l-1.7,0.8l-0.6-0.8l2.3-3.9l1.4,0.1l-2-3.1l-0.8-4.1l-9.7-8.8L234.7,62.4z"/>
	<path id="map_x5F_paysloire" class="st0" d="M97.5,232.1l1.4,1l-0.5,1.8l2.8,1.4l0.3,3l-2.2-3.4l-2-0.1l-1.4-1.7l-0.3-1.8
		C95.6,232.3,97.5,232.1,97.5,232.1z M141.3,150.8l2.4,1.1l1.8-1.6l1.7,1.2l2.4-0.2l1.2,2.5l1.3-0.5l0.7,1.6l1.7-0.8l-0.6-1.4
		l1.5,0.3l1-1l0.5,2.4l3.7-1.6l1.5-2l4.2-0.1l1.6,1.4l1.2-2.2l1.9,0.8l1.1-1.6l-0.3-1.6h1.5l2.4,2l-1.1,1l1,3.1l3.5,0.4v4.2l1.9-1.3
		l2.2,1.1l0.5-1.7l3.3-1.9l-0.5-0.9l5.8-1.3l3.1,3.2l0.4,5.7l3.3,1.3l0.4-0.6l1.7,3.3l3.8,0.9l0.5-1.7l3.2,4.2l2.3-0.4l4.3,3.1
		l-2.4,0.3l-0.4,1.6l-1.1,0.3l1.2,0.3l0.1,1.4l-1.9,0.1l0.1,1.9l1.7,0.5l-0.9,2.4l1.2,2.5l-1.3,0.5l-0.2,2.4l-0.8-1.3l-1.1,0.6
		l0.3,3.7l-2.9,2.7l0.4,0.9l-2.8,0.8l-1.5,1.9l0.4,1.6l0.9-0.3l-0.8,1.2l-4.9,1.4l-0.5,1.4l-2.4-1.4l-1,1.5l1.4,2.3l-0.6,0.5
		l-5.6-1.9l0.1,0.5l-1.4,3.2l1.2,0.6l-0.2,1.5l-2.6,5.5l1.1,1l-3.9,5.4l-0.8,6.4l-1.4-0.6l-1,0.8l-1.1,4l-1.9-0.8l-1.6,2.5l-1.9-0.9
		l1.4-1.8l-1.5-0.3l-0.8,0.8l-2.3-0.6l-4.8,0.8l-0.5,1.4l-2.8,0.7l0.8-1.5l-1.4-0.1l-2.4,1.1l0.5,1.7l-2.1,2l-2.7-0.4l-1.6,1.1
		l-2.7-1.2l-2.4,2l-1.6-0.3l1.3,0.7l-0.5,0.9h1.2l-0.5,0.6l1.9,0.7l-0.9,2l2.1,2.4h0.2l1.4,1h0.3l1,0.6l-0.7,0.7v0.2l-0.1,2l2.4,3
		l-0.9,0.7l1.6,1.3l-0.8,1.4l1.6,0.8l-0.5,2.5l0.9,2.4l-1.6,0.6l1.4,3.4l-1.3,3.2l0.8,0.4l0.5-1.2l2.5,1.5l-4,3.6l-1.9-0.5L154,271
		l-3.9-1.9l-0.2-0.3l-0.7,1.4l-1.4-0.5l-1.7,0.9l-1.1-0.6l1.2-2.6l-4.5,1.2l-0.8,1.8h-1.5l-3.3,0.1l-0.2,2.4l-4.1-3.3l0.7,2.4
		l-1.8-2.8h-4.6l-1.7-3.3l-5-0.9l-6.1-4l-1.6-6.2l-3.3-4.7l-7.2-6.7l-0.4-3.6l1.5-0.1l-0.4-0.9l3.3-3.3l0.2-2.3l1.9-1.1l-4.4-4.6
		l-5.4-1l3.1-2l-0.2-5.2l-1.5-0.4l-3.3,2.1l-2.9-2.5l-2.1,1.1l-4.2-1.7l1.4-1l0.1-1.6l-2-2l3.7-2.7v-1.4l1.3-1.6l0.8,1.2l3.2-0.3
		l0.7-3.1l2,1.2l2.3-1l0.8,1.3l0.3-1.7l2.3-0.6l0.6-6.4l4-2.4l0.7,1.3l3.4-2.1l7.4-0.1l1.4-3l5.5-2.2l-0.2-1.8l3.3,0.4l0.9,1.6
		l4.2,1.3l3.3-10.3l5.2-2.2l-2.2-10.9l-0.2-0.2l-0.8-3.4l2.1-3.4l-1.4-4.8L141.3,150.8z"/>
	<path id="map_x5F_azur" class="st0" d="M365.9,370l0.4,0.5l2.6,1.6v0.3l-1.8,0.8l-1.4,3.4l-3.5-0.6l-0.5-2.4l1.4-2.4l0.4-0.5
		l0.3-0.2l0.6-0.2l1.2-0.9l0.2,0.4h0.4v0.1H365.9z M378.8,431.7l1.3-2.2l-1.1-1.3l1-0.7l-2.4-3.3l-3.1,1.7l-6.6,0.2l-3-5.1l-1.9-0.4
		l-1,1.4l0.5-1.3l-0.9,0.5l-0.9-1.7l0.6,2.3l-1.8-1l1.3,1.4l-2.1,0.8l1.7-0.1l-0.6,0.6l1.6,1l1.4-1.3l-3,2.7l-9.5-1.7l-0.9-1.1
		l1.3-2.2l-2.2-1.5l-11.2-0.5l0.4-2l3.1-1.4l-0.4-1.4l0.7,1l4.7-2.8l0.4-1.2l-1.7-0.6l2.3-3.7l2.1-0.5l3.3,1.1l-0.5-2.1l2.1-6.1
		l-1-1.1l6.4-4.9V392l1.2-0.1l-2.2-3.9l-2.4-0.8v-5.4l-0.5-1.4l-1.3-0.1l-0.9-2.9v-3.1l5.1,0.9l1.2,4.4l9-4.1l1.8,1.5l1.6-1.7
		l0.6-0.3l-0.5,4.2l2.9,1.1l0.7-1.1l1.8,1.3l2.2-0.4l1.1,0.7l-0.1,2.4l2,0.2l0.7,1.7l3.3-0.7l2.3-3.1l1.4,1.3l-0.4,0.9l1.8,0.2
		l0.2-0.9l-1.4-0.5l1.6-1.3v-3.6h-1.4l-0.4-1.8l-1.1-0.3l0.8-1.4l-3.1,0.2l-1-1.1l-1.1,0.7l-2.4-1.9l-0.5-2.6l2.2,0.3l0.8-0.9
		l-1.3-0.5l-0.3-2.7l5.8,1.4l0.5-1.5l1.4-0.1l-2.5-2.2l1.9-3.4l-0.2-2.1l3.3,0.6l0.7-1.2l1.5,0.5l1.5-1.9l-1.2-0.8l1.1-2.8l2.1,0.7
		l2.5-0.7l1.1-1.1l-1.2-1.3l2.5-1.6l1.4,1l2.9-2.5l4.2,0.6l1.6-1.2l2.4,1l0.1-4.3l-1.4-0.8v-2.4l-4.4-0.9l1.5-5.4l1.8,0.6l1.4-0.8
		l1.2,2.8l3.3,1l1.4-0.2l-0.3-2l1.1-0.9l1.2,0.5l1.4-1.3l2,0.8l1.6,4.7l2.6,0.3l0.3,5.7l4.2,2.9l1.7,0.4l0.9-1l3.3,2.1l-0.8,1.8
		l2.9,5.5l-4.2,0.4l0.2,3.1l-4.2,4.6l0.8,2.5l2.6,2.6l-2.1,0.5v3.3l4,4.2l0.5,2.4l6.7,1.8l3.3,3.2l2.4-0.3l0.5,1.6l2.5,0.2l0.2-0.9
		l7-1l0.7-1.4l1.8,0.1l-0.6,2.3l1.8,2.4l-0.4,2.2l-1.6,0.7l-0.4,2.8L461,395l-0.4,2.4l-2.3,1.2l1.3,4.6l-4.6,3.3l-2.5,0.4l-0.2,1.9
		l-0.6-1.5l-0.5,1.1l-2.4-0.2l-1.3,2l-2-0.1l-1.4,3.3l0.9,1.8l-0.9,0.5l-0.9-1.5l-2.3,1.8l-0.8-0.8l-2,0.5l-1,1.4l0.7,0.9l-2.4,3.4
		l-3.7,1l-1.6-0.7l-1.1,3.8l-5.2,3.8l4.5,0.3l-1.2,1.3l0.6,2.3l-1.4,0.6l0.2,1l-1,0.5l-2.3-1.6l-2.4,2L417,436l-0.8,3l-3.3-1.8
		l-3.3,0.4l-1.4,2.5l0.2,2l-2.3-0.1l1.3-0.8l-0.2-1.8l-3.8,0.1l-0.7-1.4l-2.8,0.2l-0.2-1.2l-1.5,1.2l2.5,1.8l-2.2-0.5l-1.2,1.6
		l-1.2-0.2l-1.4-1l0.5-2.4h-1.5l0.2-1.2l-2.9-0.3l-0.4-1.8l-2.4-0.4l-0.6,1.4l-2.5-2.8l-1.4,0.9L378.8,431.7z"/>
</g>
</svg>
